<mxfile host="app.diagrams.net" modified="2023-03-18T13:39:27.116Z" agent="5.0 (Macintosh; Intel Mac OS X 10_15_7) AppleWebKit/537.36 (KHTML, like Gecko) Chrome/110.0.0.0 Safari/537.36" etag="3vWwYr0OemkL2vYGUZLa" version="21.0.8" type="github">
  <diagram name="페이지-1" id="fZ0D24zakKTeXsBIbfj4">
    <mxGraphModel dx="1242" dy="703" grid="1" gridSize="10" guides="1" tooltips="1" connect="1" arrows="1" fold="1" page="1" pageScale="1" pageWidth="827" pageHeight="1169" math="0" shadow="0">
      <root>
        <mxCell id="0" />
        <mxCell id="1" parent="0" />
        <mxCell id="7XAIl-xEh7DIo7LdumhO-2" value="&lt;h1&gt;상품 재입고 알람 시스템&lt;/h1&gt;&lt;p&gt;1. 고객은 원하는 상품을 선택하여 재입고 알람을 설정한다.&lt;/p&gt;&lt;p&gt;2. 상품이 재입고 되면, 알람을 설정한 고객에게 알람을 보낸다.&lt;/p&gt;&lt;p&gt;3. 알람이 누락되서는 안된다.&lt;/p&gt;&lt;p&gt;4. 알람이 중복으로 보내져선 안된다.&lt;/p&gt;&lt;p&gt;5. 고객은 알람을 중지시킬 수 있다.&lt;/p&gt;" style="text;html=1;strokeColor=none;fillColor=none;spacing=5;spacingTop=-20;whiteSpace=wrap;overflow=hidden;rounded=0;" parent="1" vertex="1">
          <mxGeometry x="80" y="50" width="360" height="190" as="geometry" />
        </mxCell>
        <mxCell id="7XAIl-xEh7DIo7LdumhO-5" style="edgeStyle=orthogonalEdgeStyle;rounded=0;orthogonalLoop=1;jettySize=auto;html=1;exitX=0.5;exitY=0.5;exitDx=0;exitDy=0;exitPerimeter=0;entryX=0;entryY=0.5;entryDx=0;entryDy=0;" parent="1" source="7XAIl-xEh7DIo7LdumhO-3" target="7XAIl-xEh7DIo7LdumhO-4" edge="1">
          <mxGeometry relative="1" as="geometry" />
        </mxCell>
        <mxCell id="7XAIl-xEh7DIo7LdumhO-3" value="Actor" style="shape=umlActor;verticalLabelPosition=bottom;verticalAlign=top;html=1;outlineConnect=0;" parent="1" vertex="1">
          <mxGeometry x="120" y="370" width="30" height="60" as="geometry" />
        </mxCell>
        <mxCell id="7XAIl-xEh7DIo7LdumhO-7" style="edgeStyle=orthogonalEdgeStyle;rounded=0;orthogonalLoop=1;jettySize=auto;html=1;exitX=1;exitY=0.5;exitDx=0;exitDy=0;" parent="1" source="7XAIl-xEh7DIo7LdumhO-4" target="7XAIl-xEh7DIo7LdumhO-6" edge="1">
          <mxGeometry relative="1" as="geometry" />
        </mxCell>
        <mxCell id="7XAIl-xEh7DIo7LdumhO-4" value="App / Web&lt;br&gt;(Front)" style="whiteSpace=wrap;html=1;aspect=fixed;" parent="1" vertex="1">
          <mxGeometry x="240" y="360" width="80" height="80" as="geometry" />
        </mxCell>
        <mxCell id="7XAIl-xEh7DIo7LdumhO-30" style="edgeStyle=orthogonalEdgeStyle;rounded=0;orthogonalLoop=1;jettySize=auto;html=1;exitX=0.5;exitY=1;exitDx=0;exitDy=0;entryX=0.5;entryY=0;entryDx=0;entryDy=0;entryPerimeter=0;" parent="1" source="7XAIl-xEh7DIo7LdumhO-6" target="7XAIl-xEh7DIo7LdumhO-28" edge="1">
          <mxGeometry relative="1" as="geometry" />
        </mxCell>
        <mxCell id="7XAIl-xEh7DIo7LdumhO-6" value="알람 등록 API" style="whiteSpace=wrap;html=1;aspect=fixed;" parent="1" vertex="1">
          <mxGeometry x="400" y="360" width="80" height="80" as="geometry" />
        </mxCell>
        <mxCell id="7XAIl-xEh7DIo7LdumhO-10" value="알람 등록" style="text;html=1;align=center;verticalAlign=middle;resizable=0;points=[];autosize=1;strokeColor=none;fillColor=none;" parent="1" vertex="1">
          <mxGeometry x="155" y="365" width="70" height="30" as="geometry" />
        </mxCell>
        <mxCell id="7XAIl-xEh7DIo7LdumhO-11" value="재입고 알람" style="shape=table;startSize=30;container=1;collapsible=1;childLayout=tableLayout;fixedRows=1;rowLines=0;fontStyle=1;align=center;resizeLast=1;html=1;" parent="1" vertex="1">
          <mxGeometry x="180" y="520" width="180" height="180" as="geometry" />
        </mxCell>
        <mxCell id="7XAIl-xEh7DIo7LdumhO-12" value="" style="shape=tableRow;horizontal=0;startSize=0;swimlaneHead=0;swimlaneBody=0;fillColor=none;collapsible=0;dropTarget=0;points=[[0,0.5],[1,0.5]];portConstraint=eastwest;top=0;left=0;right=0;bottom=1;" parent="7XAIl-xEh7DIo7LdumhO-11" vertex="1">
          <mxGeometry y="30" width="180" height="30" as="geometry" />
        </mxCell>
        <mxCell id="7XAIl-xEh7DIo7LdumhO-13" value="PK" style="shape=partialRectangle;connectable=0;fillColor=none;top=0;left=0;bottom=0;right=0;fontStyle=1;overflow=hidden;whiteSpace=wrap;html=1;" parent="7XAIl-xEh7DIo7LdumhO-12" vertex="1">
          <mxGeometry width="30" height="30" as="geometry">
            <mxRectangle width="30" height="30" as="alternateBounds" />
          </mxGeometry>
        </mxCell>
        <mxCell id="7XAIl-xEh7DIo7LdumhO-14" value="id (auto increament)" style="shape=partialRectangle;connectable=0;fillColor=none;top=0;left=0;bottom=0;right=0;align=left;spacingLeft=6;fontStyle=5;overflow=hidden;whiteSpace=wrap;html=1;" parent="7XAIl-xEh7DIo7LdumhO-12" vertex="1">
          <mxGeometry x="30" width="150" height="30" as="geometry">
            <mxRectangle width="150" height="30" as="alternateBounds" />
          </mxGeometry>
        </mxCell>
        <mxCell id="7XAIl-xEh7DIo7LdumhO-15" value="" style="shape=tableRow;horizontal=0;startSize=0;swimlaneHead=0;swimlaneBody=0;fillColor=none;collapsible=0;dropTarget=0;points=[[0,0.5],[1,0.5]];portConstraint=eastwest;top=0;left=0;right=0;bottom=0;" parent="7XAIl-xEh7DIo7LdumhO-11" vertex="1">
          <mxGeometry y="60" width="180" height="30" as="geometry" />
        </mxCell>
        <mxCell id="7XAIl-xEh7DIo7LdumhO-16" value="UNI" style="shape=partialRectangle;connectable=0;fillColor=none;top=0;left=0;bottom=0;right=0;editable=1;overflow=hidden;whiteSpace=wrap;html=1;" parent="7XAIl-xEh7DIo7LdumhO-15" vertex="1">
          <mxGeometry width="30" height="30" as="geometry">
            <mxRectangle width="30" height="30" as="alternateBounds" />
          </mxGeometry>
        </mxCell>
        <mxCell id="7XAIl-xEh7DIo7LdumhO-17" value="회원번호" style="shape=partialRectangle;connectable=0;fillColor=none;top=0;left=0;bottom=0;right=0;align=left;spacingLeft=6;overflow=hidden;whiteSpace=wrap;html=1;" parent="7XAIl-xEh7DIo7LdumhO-15" vertex="1">
          <mxGeometry x="30" width="150" height="30" as="geometry">
            <mxRectangle width="150" height="30" as="alternateBounds" />
          </mxGeometry>
        </mxCell>
        <mxCell id="7XAIl-xEh7DIo7LdumhO-18" value="" style="shape=tableRow;horizontal=0;startSize=0;swimlaneHead=0;swimlaneBody=0;fillColor=none;collapsible=0;dropTarget=0;points=[[0,0.5],[1,0.5]];portConstraint=eastwest;top=0;left=0;right=0;bottom=0;" parent="7XAIl-xEh7DIo7LdumhO-11" vertex="1">
          <mxGeometry y="90" width="180" height="30" as="geometry" />
        </mxCell>
        <mxCell id="7XAIl-xEh7DIo7LdumhO-19" value="UNI" style="shape=partialRectangle;connectable=0;fillColor=none;top=0;left=0;bottom=0;right=0;editable=1;overflow=hidden;whiteSpace=wrap;html=1;" parent="7XAIl-xEh7DIo7LdumhO-18" vertex="1">
          <mxGeometry width="30" height="30" as="geometry">
            <mxRectangle width="30" height="30" as="alternateBounds" />
          </mxGeometry>
        </mxCell>
        <mxCell id="7XAIl-xEh7DIo7LdumhO-20" value="상품번호" style="shape=partialRectangle;connectable=0;fillColor=none;top=0;left=0;bottom=0;right=0;align=left;spacingLeft=6;overflow=hidden;whiteSpace=wrap;html=1;" parent="7XAIl-xEh7DIo7LdumhO-18" vertex="1">
          <mxGeometry x="30" width="150" height="30" as="geometry">
            <mxRectangle width="150" height="30" as="alternateBounds" />
          </mxGeometry>
        </mxCell>
        <mxCell id="7XAIl-xEh7DIo7LdumhO-21" value="" style="shape=tableRow;horizontal=0;startSize=0;swimlaneHead=0;swimlaneBody=0;fillColor=none;collapsible=0;dropTarget=0;points=[[0,0.5],[1,0.5]];portConstraint=eastwest;top=0;left=0;right=0;bottom=0;" parent="7XAIl-xEh7DIo7LdumhO-11" vertex="1">
          <mxGeometry y="120" width="180" height="30" as="geometry" />
        </mxCell>
        <mxCell id="7XAIl-xEh7DIo7LdumhO-22" value="" style="shape=partialRectangle;connectable=0;fillColor=none;top=0;left=0;bottom=0;right=0;editable=1;overflow=hidden;whiteSpace=wrap;html=1;" parent="7XAIl-xEh7DIo7LdumhO-21" vertex="1">
          <mxGeometry width="30" height="30" as="geometry">
            <mxRectangle width="30" height="30" as="alternateBounds" />
          </mxGeometry>
        </mxCell>
        <mxCell id="7XAIl-xEh7DIo7LdumhO-23" value="알람 활성화 여부" style="shape=partialRectangle;connectable=0;fillColor=none;top=0;left=0;bottom=0;right=0;align=left;spacingLeft=6;overflow=hidden;whiteSpace=wrap;html=1;" parent="7XAIl-xEh7DIo7LdumhO-21" vertex="1">
          <mxGeometry x="30" width="150" height="30" as="geometry">
            <mxRectangle width="150" height="30" as="alternateBounds" />
          </mxGeometry>
        </mxCell>
        <mxCell id="7XAIl-xEh7DIo7LdumhO-24" value="" style="shape=tableRow;horizontal=0;startSize=0;swimlaneHead=0;swimlaneBody=0;fillColor=none;collapsible=0;dropTarget=0;points=[[0,0.5],[1,0.5]];portConstraint=eastwest;top=0;left=0;right=0;bottom=0;" parent="7XAIl-xEh7DIo7LdumhO-11" vertex="1">
          <mxGeometry y="150" width="180" height="30" as="geometry" />
        </mxCell>
        <mxCell id="7XAIl-xEh7DIo7LdumhO-25" value="" style="shape=partialRectangle;connectable=0;fillColor=none;top=0;left=0;bottom=0;right=0;editable=1;overflow=hidden;whiteSpace=wrap;html=1;" parent="7XAIl-xEh7DIo7LdumhO-24" vertex="1">
          <mxGeometry width="30" height="30" as="geometry">
            <mxRectangle width="30" height="30" as="alternateBounds" />
          </mxGeometry>
        </mxCell>
        <mxCell id="7XAIl-xEh7DIo7LdumhO-26" value="등록날짜" style="shape=partialRectangle;connectable=0;fillColor=none;top=0;left=0;bottom=0;right=0;align=left;spacingLeft=6;overflow=hidden;whiteSpace=wrap;html=1;" parent="7XAIl-xEh7DIo7LdumhO-24" vertex="1">
          <mxGeometry x="30" width="150" height="30" as="geometry">
            <mxRectangle width="150" height="30" as="alternateBounds" />
          </mxGeometry>
        </mxCell>
        <mxCell id="7XAIl-xEh7DIo7LdumhO-28" value="RDS&lt;br&gt;(master &amp;amp; slave)" style="strokeWidth=2;html=1;shape=mxgraph.flowchart.database;whiteSpace=wrap;" parent="1" vertex="1">
          <mxGeometry x="410" y="540" width="60" height="60" as="geometry" />
        </mxCell>
        <mxCell id="7XAIl-xEh7DIo7LdumhO-33" style="edgeStyle=orthogonalEdgeStyle;rounded=0;orthogonalLoop=1;jettySize=auto;html=1;exitX=1;exitY=0.5;exitDx=0;exitDy=0;entryX=0;entryY=0.5;entryDx=0;entryDy=0;entryPerimeter=0;" parent="1" source="7XAIl-xEh7DIo7LdumhO-31" target="7XAIl-xEh7DIo7LdumhO-32" edge="1">
          <mxGeometry relative="1" as="geometry" />
        </mxCell>
        <mxCell id="7XAIl-xEh7DIo7LdumhO-31" value="상품입고" style="rounded=1;whiteSpace=wrap;html=1;absoluteArcSize=1;arcSize=14;strokeWidth=2;" parent="1" vertex="1">
          <mxGeometry x="85" y="800" width="100" height="100" as="geometry" />
        </mxCell>
        <mxCell id="7XAIl-xEh7DIo7LdumhO-32" value="Kafka" style="strokeWidth=2;html=1;shape=mxgraph.flowchart.direct_data;whiteSpace=wrap;" parent="1" vertex="1">
          <mxGeometry x="280" y="820" width="100" height="60" as="geometry" />
        </mxCell>
        <mxCell id="7XAIl-xEh7DIo7LdumhO-35" style="edgeStyle=orthogonalEdgeStyle;rounded=0;orthogonalLoop=1;jettySize=auto;html=1;exitX=0;exitY=0.5;exitDx=0;exitDy=0;entryX=1;entryY=0.5;entryDx=0;entryDy=0;entryPerimeter=0;" parent="1" source="7XAIl-xEh7DIo7LdumhO-34" target="7XAIl-xEh7DIo7LdumhO-32" edge="1">
          <mxGeometry relative="1" as="geometry" />
        </mxCell>
        <mxCell id="7XAIl-xEh7DIo7LdumhO-44" style="edgeStyle=orthogonalEdgeStyle;rounded=0;orthogonalLoop=1;jettySize=auto;html=1;exitX=1;exitY=0.5;exitDx=0;exitDy=0;" parent="1" source="7XAIl-xEh7DIo7LdumhO-34" target="7XAIl-xEh7DIo7LdumhO-43" edge="1">
          <mxGeometry relative="1" as="geometry" />
        </mxCell>
        <mxCell id="7lklKGxvWgB5LxNq6Q4W-2" style="edgeStyle=orthogonalEdgeStyle;rounded=0;orthogonalLoop=1;jettySize=auto;html=1;exitX=0.5;exitY=0;exitDx=0;exitDy=0;" parent="1" source="7XAIl-xEh7DIo7LdumhO-34" edge="1">
          <mxGeometry relative="1" as="geometry">
            <mxPoint x="440" y="600" as="targetPoint" />
          </mxGeometry>
        </mxCell>
        <mxCell id="7XAIl-xEh7DIo7LdumhO-34" value="상품 재입고 컨슈머" style="whiteSpace=wrap;html=1;aspect=fixed;" parent="1" vertex="1">
          <mxGeometry x="460" y="810" width="80" height="80" as="geometry" />
        </mxCell>
        <mxCell id="7XAIl-xEh7DIo7LdumhO-38" value="상품 번호로 알람테이블 조회&lt;br&gt;알람 활성화 여부 체크" style="text;html=1;strokeColor=none;fillColor=none;align=center;verticalAlign=middle;whiteSpace=wrap;rounded=0;" parent="1" vertex="1">
          <mxGeometry x="330" y="740" width="160" height="30" as="geometry" />
        </mxCell>
        <mxCell id="7XAIl-xEh7DIo7LdumhO-43" value="Kafka" style="strokeWidth=2;html=1;shape=mxgraph.flowchart.direct_data;whiteSpace=wrap;" parent="1" vertex="1">
          <mxGeometry x="670" y="820" width="100" height="60" as="geometry" />
        </mxCell>
        <mxCell id="7XAIl-xEh7DIo7LdumhO-45" value="알람 메세지 발행&amp;nbsp;" style="text;html=1;align=center;verticalAlign=middle;resizable=0;points=[];autosize=1;strokeColor=none;fillColor=none;" parent="1" vertex="1">
          <mxGeometry x="550" y="810" width="110" height="30" as="geometry" />
        </mxCell>
        <mxCell id="7XAIl-xEh7DIo7LdumhO-47" style="edgeStyle=orthogonalEdgeStyle;rounded=0;orthogonalLoop=1;jettySize=auto;html=1;exitX=0;exitY=0.5;exitDx=0;exitDy=0;entryX=1;entryY=0.5;entryDx=0;entryDy=0;entryPerimeter=0;" parent="1" source="7XAIl-xEh7DIo7LdumhO-46" target="7XAIl-xEh7DIo7LdumhO-43" edge="1">
          <mxGeometry relative="1" as="geometry" />
        </mxCell>
        <mxCell id="7XAIl-xEh7DIo7LdumhO-49" style="edgeStyle=orthogonalEdgeStyle;rounded=0;orthogonalLoop=1;jettySize=auto;html=1;exitX=0.5;exitY=0;exitDx=0;exitDy=0;entryX=0.5;entryY=1;entryDx=0;entryDy=0;" parent="1" source="7XAIl-xEh7DIo7LdumhO-46" target="7XAIl-xEh7DIo7LdumhO-48" edge="1">
          <mxGeometry relative="1" as="geometry" />
        </mxCell>
        <mxCell id="7lklKGxvWgB5LxNq6Q4W-3" style="edgeStyle=orthogonalEdgeStyle;rounded=0;orthogonalLoop=1;jettySize=auto;html=1;exitX=0.25;exitY=0;exitDx=0;exitDy=0;entryX=0.833;entryY=0.95;entryDx=0;entryDy=0;entryPerimeter=0;" parent="1" source="7XAIl-xEh7DIo7LdumhO-46" target="7XAIl-xEh7DIo7LdumhO-28" edge="1">
          <mxGeometry relative="1" as="geometry">
            <Array as="points">
              <mxPoint x="940" y="680" />
              <mxPoint x="460" y="680" />
            </Array>
          </mxGeometry>
        </mxCell>
        <mxCell id="sVdZr1kEb-Mcix8czJmq-1" style="edgeStyle=orthogonalEdgeStyle;rounded=0;orthogonalLoop=1;jettySize=auto;html=1;exitX=0.25;exitY=1;exitDx=0;exitDy=0;entryX=0.5;entryY=1;entryDx=0;entryDy=0;entryPerimeter=0;" parent="1" source="7XAIl-xEh7DIo7LdumhO-46" target="7XAIl-xEh7DIo7LdumhO-43" edge="1">
          <mxGeometry relative="1" as="geometry" />
        </mxCell>
        <mxCell id="sVdZr1kEb-Mcix8czJmq-4" style="edgeStyle=orthogonalEdgeStyle;rounded=0;orthogonalLoop=1;jettySize=auto;html=1;exitX=1;exitY=0.5;exitDx=0;exitDy=0;entryX=0.5;entryY=0.5;entryDx=0;entryDy=0;entryPerimeter=0;" parent="1" source="7XAIl-xEh7DIo7LdumhO-46" target="sVdZr1kEb-Mcix8czJmq-3" edge="1">
          <mxGeometry relative="1" as="geometry" />
        </mxCell>
        <mxCell id="lod2hBOkV9UL_yvt2Dmq-16" style="edgeStyle=orthogonalEdgeStyle;rounded=0;orthogonalLoop=1;jettySize=auto;html=1;exitX=0.75;exitY=0;exitDx=0;exitDy=0;entryX=0.5;entryY=1;entryDx=0;entryDy=0;" edge="1" parent="1" source="7XAIl-xEh7DIo7LdumhO-46" target="lod2hBOkV9UL_yvt2Dmq-15">
          <mxGeometry relative="1" as="geometry" />
        </mxCell>
        <mxCell id="lod2hBOkV9UL_yvt2Dmq-19" style="edgeStyle=orthogonalEdgeStyle;rounded=0;orthogonalLoop=1;jettySize=auto;html=1;exitX=1;exitY=0.25;exitDx=0;exitDy=0;entryX=0.5;entryY=1;entryDx=0;entryDy=0;entryPerimeter=0;" edge="1" parent="1" source="7XAIl-xEh7DIo7LdumhO-46" target="P6en9wR6i65Uj4CdgG8a-1">
          <mxGeometry relative="1" as="geometry" />
        </mxCell>
        <mxCell id="7XAIl-xEh7DIo7LdumhO-46" value="상품 재입고 알람 발송 컨슈머" style="whiteSpace=wrap;html=1;aspect=fixed;" parent="1" vertex="1">
          <mxGeometry x="920" y="810" width="80" height="80" as="geometry" />
        </mxCell>
        <mxCell id="7XAIl-xEh7DIo7LdumhO-48" value="회원서비스" style="whiteSpace=wrap;html=1;aspect=fixed;" parent="1" vertex="1">
          <mxGeometry x="920" y="420" width="80" height="80" as="geometry" />
        </mxCell>
        <mxCell id="FCcLeAHNI5awjsewv-tO-1" value="회원정보 조회&amp;nbsp;" style="text;html=1;strokeColor=none;fillColor=none;align=center;verticalAlign=middle;whiteSpace=wrap;rounded=0;" parent="1" vertex="1">
          <mxGeometry x="860" y="620" width="90" height="30" as="geometry" />
        </mxCell>
        <mxCell id="FCcLeAHNI5awjsewv-tO-3" value="재입고 알람 발송내역" style="shape=table;startSize=30;container=1;collapsible=1;childLayout=tableLayout;fixedRows=1;rowLines=0;fontStyle=1;align=center;resizeLast=1;html=1;" parent="1" vertex="1">
          <mxGeometry x="600" y="480" width="180" height="150" as="geometry" />
        </mxCell>
        <mxCell id="FCcLeAHNI5awjsewv-tO-4" value="" style="shape=tableRow;horizontal=0;startSize=0;swimlaneHead=0;swimlaneBody=0;fillColor=none;collapsible=0;dropTarget=0;points=[[0,0.5],[1,0.5]];portConstraint=eastwest;top=0;left=0;right=0;bottom=1;" parent="FCcLeAHNI5awjsewv-tO-3" vertex="1">
          <mxGeometry y="30" width="180" height="30" as="geometry" />
        </mxCell>
        <mxCell id="FCcLeAHNI5awjsewv-tO-5" value="PK" style="shape=partialRectangle;connectable=0;fillColor=none;top=0;left=0;bottom=0;right=0;fontStyle=1;overflow=hidden;whiteSpace=wrap;html=1;" parent="FCcLeAHNI5awjsewv-tO-4" vertex="1">
          <mxGeometry width="30" height="30" as="geometry">
            <mxRectangle width="30" height="30" as="alternateBounds" />
          </mxGeometry>
        </mxCell>
        <mxCell id="FCcLeAHNI5awjsewv-tO-6" value="id" style="shape=partialRectangle;connectable=0;fillColor=none;top=0;left=0;bottom=0;right=0;align=left;spacingLeft=6;fontStyle=5;overflow=hidden;whiteSpace=wrap;html=1;" parent="FCcLeAHNI5awjsewv-tO-4" vertex="1">
          <mxGeometry x="30" width="150" height="30" as="geometry">
            <mxRectangle width="150" height="30" as="alternateBounds" />
          </mxGeometry>
        </mxCell>
        <mxCell id="FCcLeAHNI5awjsewv-tO-7" value="" style="shape=tableRow;horizontal=0;startSize=0;swimlaneHead=0;swimlaneBody=0;fillColor=none;collapsible=0;dropTarget=0;points=[[0,0.5],[1,0.5]];portConstraint=eastwest;top=0;left=0;right=0;bottom=0;" parent="FCcLeAHNI5awjsewv-tO-3" vertex="1">
          <mxGeometry y="60" width="180" height="30" as="geometry" />
        </mxCell>
        <mxCell id="FCcLeAHNI5awjsewv-tO-8" value="FK" style="shape=partialRectangle;connectable=0;fillColor=none;top=0;left=0;bottom=0;right=0;editable=1;overflow=hidden;whiteSpace=wrap;html=1;" parent="FCcLeAHNI5awjsewv-tO-7" vertex="1">
          <mxGeometry width="30" height="30" as="geometry">
            <mxRectangle width="30" height="30" as="alternateBounds" />
          </mxGeometry>
        </mxCell>
        <mxCell id="FCcLeAHNI5awjsewv-tO-9" value="재입고 알람 PK" style="shape=partialRectangle;connectable=0;fillColor=none;top=0;left=0;bottom=0;right=0;align=left;spacingLeft=6;overflow=hidden;whiteSpace=wrap;html=1;" parent="FCcLeAHNI5awjsewv-tO-7" vertex="1">
          <mxGeometry x="30" width="150" height="30" as="geometry">
            <mxRectangle width="150" height="30" as="alternateBounds" />
          </mxGeometry>
        </mxCell>
        <mxCell id="FCcLeAHNI5awjsewv-tO-10" value="" style="shape=tableRow;horizontal=0;startSize=0;swimlaneHead=0;swimlaneBody=0;fillColor=none;collapsible=0;dropTarget=0;points=[[0,0.5],[1,0.5]];portConstraint=eastwest;top=0;left=0;right=0;bottom=0;" parent="FCcLeAHNI5awjsewv-tO-3" vertex="1">
          <mxGeometry y="90" width="180" height="30" as="geometry" />
        </mxCell>
        <mxCell id="FCcLeAHNI5awjsewv-tO-11" value="" style="shape=partialRectangle;connectable=0;fillColor=none;top=0;left=0;bottom=0;right=0;editable=1;overflow=hidden;whiteSpace=wrap;html=1;" parent="FCcLeAHNI5awjsewv-tO-10" vertex="1">
          <mxGeometry width="30" height="30" as="geometry">
            <mxRectangle width="30" height="30" as="alternateBounds" />
          </mxGeometry>
        </mxCell>
        <mxCell id="FCcLeAHNI5awjsewv-tO-12" value="처리 시간" style="shape=partialRectangle;connectable=0;fillColor=none;top=0;left=0;bottom=0;right=0;align=left;spacingLeft=6;overflow=hidden;whiteSpace=wrap;html=1;" parent="FCcLeAHNI5awjsewv-tO-10" vertex="1">
          <mxGeometry x="30" width="150" height="30" as="geometry">
            <mxRectangle width="150" height="30" as="alternateBounds" />
          </mxGeometry>
        </mxCell>
        <mxCell id="FCcLeAHNI5awjsewv-tO-13" value="" style="shape=tableRow;horizontal=0;startSize=0;swimlaneHead=0;swimlaneBody=0;fillColor=none;collapsible=0;dropTarget=0;points=[[0,0.5],[1,0.5]];portConstraint=eastwest;top=0;left=0;right=0;bottom=0;" parent="FCcLeAHNI5awjsewv-tO-3" vertex="1">
          <mxGeometry y="120" width="180" height="30" as="geometry" />
        </mxCell>
        <mxCell id="FCcLeAHNI5awjsewv-tO-14" value="" style="shape=partialRectangle;connectable=0;fillColor=none;top=0;left=0;bottom=0;right=0;editable=1;overflow=hidden;whiteSpace=wrap;html=1;" parent="FCcLeAHNI5awjsewv-tO-13" vertex="1">
          <mxGeometry width="30" height="30" as="geometry">
            <mxRectangle width="30" height="30" as="alternateBounds" />
          </mxGeometry>
        </mxCell>
        <mxCell id="FCcLeAHNI5awjsewv-tO-15" value="발송사유 (최초, 재발송 등)" style="shape=partialRectangle;connectable=0;fillColor=none;top=0;left=0;bottom=0;right=0;align=left;spacingLeft=6;overflow=hidden;whiteSpace=wrap;html=1;" parent="FCcLeAHNI5awjsewv-tO-13" vertex="1">
          <mxGeometry x="30" width="150" height="30" as="geometry">
            <mxRectangle width="150" height="30" as="alternateBounds" />
          </mxGeometry>
        </mxCell>
        <mxCell id="7lklKGxvWgB5LxNq6Q4W-4" value="재입고 알람 발송내역을 조회하여 발행되었는지 확인&lt;br&gt;&lt;br&gt;알람 발송 후 알람발송내역 테이블 저장" style="text;html=1;align=center;verticalAlign=middle;resizable=0;points=[];autosize=1;strokeColor=none;fillColor=none;" parent="1" vertex="1">
          <mxGeometry x="570" y="690" width="280" height="60" as="geometry" />
        </mxCell>
        <mxCell id="7lklKGxvWgB5LxNq6Q4W-5" value="메세지 컨슈밍&amp;nbsp;" style="text;html=1;align=center;verticalAlign=middle;resizable=0;points=[];autosize=1;strokeColor=none;fillColor=none;" parent="1" vertex="1">
          <mxGeometry x="790" y="810" width="100" height="30" as="geometry" />
        </mxCell>
        <mxCell id="sVdZr1kEb-Mcix8czJmq-2" value="발송 처리 과정에서 에러 발생시 DLQ에 메세지 발행&lt;br&gt;알람 발송 누락 방지&amp;nbsp;&amp;nbsp;" style="text;html=1;align=center;verticalAlign=middle;resizable=0;points=[];autosize=1;strokeColor=none;fillColor=none;" parent="1" vertex="1">
          <mxGeometry x="685" y="915" width="280" height="40" as="geometry" />
        </mxCell>
        <mxCell id="sVdZr1kEb-Mcix8czJmq-3" value="Actor" style="shape=umlActor;verticalLabelPosition=bottom;verticalAlign=top;html=1;outlineConnect=0;" parent="1" vertex="1">
          <mxGeometry x="1160" y="820" width="30" height="60" as="geometry" />
        </mxCell>
        <mxCell id="sVdZr1kEb-Mcix8czJmq-6" value="알람 발송" style="text;html=1;strokeColor=none;fillColor=none;align=center;verticalAlign=middle;whiteSpace=wrap;rounded=0;" parent="1" vertex="1">
          <mxGeometry x="1050" y="860" width="60" height="30" as="geometry" />
        </mxCell>
        <mxCell id="sVdZr1kEb-Mcix8czJmq-7" value="상품번호" style="text;html=1;align=center;verticalAlign=middle;resizable=0;points=[];autosize=1;strokeColor=none;fillColor=none;" parent="1" vertex="1">
          <mxGeometry x="195" y="815" width="70" height="30" as="geometry" />
        </mxCell>
        <mxCell id="sVdZr1kEb-Mcix8czJmq-9" value="&lt;div style=&quot;&quot;&gt;중복 메세지 발행에 대한 고민&lt;/div&gt;&lt;div style=&quot;&quot;&gt;&lt;br&gt;&lt;/div&gt;&lt;div style=&quot;&quot;&gt;1. Redis를 두고 특정 TTL 동안 발송내역을 Redis에서 관리하여 Redis에 데이터가 존재할 경우 발송하지 않음&lt;/div&gt;&lt;div style=&quot;&quot;&gt;2. 알람 발송 컨슈머를 최초 발송용과 재처리 발송용으로 나누고, 재처리 발송용에서 알람 발송 내역을 조회하여 발송되었는지 확인 후 처리&lt;/div&gt;" style="text;html=1;strokeColor=none;fillColor=none;align=left;verticalAlign=middle;whiteSpace=wrap;rounded=0;" parent="1" vertex="1">
          <mxGeometry x="900" y="960" width="380" height="130" as="geometry" />
        </mxCell>
        <mxCell id="P6en9wR6i65Uj4CdgG8a-1" value="Redis" style="shape=cylinder3;whiteSpace=wrap;html=1;boundedLbl=1;backgroundOutline=1;size=15;" parent="1" vertex="1">
          <mxGeometry x="1070" y="620" width="60" height="80" as="geometry" />
        </mxCell>
        <mxCell id="P6en9wR6i65Uj4CdgG8a-3" value="메세지 발행 체크" style="text;html=1;align=center;verticalAlign=middle;resizable=0;points=[];autosize=1;strokeColor=none;fillColor=none;" parent="1" vertex="1">
          <mxGeometry x="995" y="760" width="110" height="30" as="geometry" />
        </mxCell>
        <mxCell id="lod2hBOkV9UL_yvt2Dmq-11" value="메세지" style="swimlane;fontStyle=0;childLayout=stackLayout;horizontal=1;startSize=30;horizontalStack=0;resizeParent=1;resizeParentMax=0;resizeLast=0;collapsible=1;marginBottom=0;whiteSpace=wrap;html=1;" vertex="1" parent="1">
          <mxGeometry x="520" y="900" width="140" height="120" as="geometry" />
        </mxCell>
        <mxCell id="lod2hBOkV9UL_yvt2Dmq-12" value="재입고 알람 PK" style="text;strokeColor=none;fillColor=none;align=left;verticalAlign=middle;spacingLeft=4;spacingRight=4;overflow=hidden;points=[[0,0.5],[1,0.5]];portConstraint=eastwest;rotatable=0;whiteSpace=wrap;html=1;" vertex="1" parent="lod2hBOkV9UL_yvt2Dmq-11">
          <mxGeometry y="30" width="140" height="30" as="geometry" />
        </mxCell>
        <mxCell id="lod2hBOkV9UL_yvt2Dmq-13" value="회원 번호" style="text;strokeColor=none;fillColor=none;align=left;verticalAlign=middle;spacingLeft=4;spacingRight=4;overflow=hidden;points=[[0,0.5],[1,0.5]];portConstraint=eastwest;rotatable=0;whiteSpace=wrap;html=1;" vertex="1" parent="lod2hBOkV9UL_yvt2Dmq-11">
          <mxGeometry y="60" width="140" height="30" as="geometry" />
        </mxCell>
        <mxCell id="lod2hBOkV9UL_yvt2Dmq-14" value="상품 번호&amp;nbsp;" style="text;strokeColor=none;fillColor=none;align=left;verticalAlign=middle;spacingLeft=4;spacingRight=4;overflow=hidden;points=[[0,0.5],[1,0.5]];portConstraint=eastwest;rotatable=0;whiteSpace=wrap;html=1;" vertex="1" parent="lod2hBOkV9UL_yvt2Dmq-11">
          <mxGeometry y="90" width="140" height="30" as="geometry" />
        </mxCell>
        <mxCell id="lod2hBOkV9UL_yvt2Dmq-15" value="상품서비스" style="whiteSpace=wrap;html=1;aspect=fixed;" vertex="1" parent="1">
          <mxGeometry x="1010" y="420" width="80" height="80" as="geometry" />
        </mxCell>
        <mxCell id="lod2hBOkV9UL_yvt2Dmq-17" value="상품정보 조회" style="text;html=1;align=center;verticalAlign=middle;resizable=0;points=[];autosize=1;strokeColor=none;fillColor=none;" vertex="1" parent="1">
          <mxGeometry x="965" y="575" width="90" height="30" as="geometry" />
        </mxCell>
        <mxCell id="lod2hBOkV9UL_yvt2Dmq-20" value="요구사항에 따라 재입고 알람 PK만 존재하는 제로페이로드 형식으로 할 수도 있음&lt;br&gt;제로페이로드 형식일 경우, 상품재입고알람 발송 컨슈머에서 재입고 알람 PK로 재입고 데이터를 조회해야함&amp;nbsp;" style="text;html=1;strokeColor=none;fillColor=none;align=left;verticalAlign=middle;whiteSpace=wrap;rounded=0;" vertex="1" parent="1">
          <mxGeometry x="490" y="1030" width="320" height="70" as="geometry" />
        </mxCell>
      </root>
    </mxGraphModel>
  </diagram>
</mxfile>
